<?xml version="1.0" encoding="UTF-8"?>
<svg id="Layer_1" data-name="Layer 1" xmlns="http://www.w3.org/2000/svg" viewBox="0 0 592.96 460.21">
  <defs>
    <style>
      .cls-1 {
        fill: #93bae2;
      }

      .cls-2 {
        fill: #b4c6d9;
      }

      .cls-3 {
        fill: #e9b773;
      }

      .cls-4 {
        fill: #94a7ba;
      }

      .cls-5 {
        fill: #a3d6f4;
      }

      .cls-6 {
        fill: #b8e0f7;
      }

      .cls-7 {
        fill: #c9e5f2;
      }

      .cls-8 {
        fill: #fff;
      }

      .cls-9 {
        fill: #447dba;
      }
    </style>
  </defs>
  <g>
    <g>
      <path class="cls-6" d="M373.89,118.92c6.72.58,17.49,2.4,28.59,8.81-8.6-4.56-18.28-7.65-28.59-8.81Z"/>
      <path class="cls-6" d="M241.96,266h-11.05c1.74-7.91,2.16-16.3,1.06-24.87-5.17-40.38-41.94-67.52-81.34-61.57-38.56,5.82-64.95,41.89-59.68,82.08-30.57-1.4-52.58-27.13-51.63-56.1.48-14.74,6.6-27.64,16.34-37.04,9.75-9.39,23.13-15.28,38.15-15.98.94-9.76,3.4-19.23,7.51-27.69,2-3.32,3.98-6.64,5.98-9.96.07-.11.15-.21.22-.31,4.76-6.4,10.78-11.84,18.14-15.87,18.27-10.01,38.4-10.75,57.58-.39,13.73-35.31,45.03-57.97,80.62-61.3.18-.01.35-.02.53-.04.29-.02.56-.04.81-.06,11.2-.79,21.65.29,31.19,2.49.07.01.13.03.2.05,38.33,9.53,68.29,42.7,72.18,85.22,26.76,1.61,49.45,16.34,60.18,38.52,11.8,24.39,8.66,52.28-7.62,72.93l-71.94.17-40.86,25.05h-65.25c-1.18.6-3.65,2.71-2.79,3.44l1.47,1.23ZM328,147.71c.45-.65,1.27-3.33,1.14-4.33-.84-6.39-9.01-13.22-16.16-12.77-6.48.41-13.99,6.56-15.23,12.88-.25,1.25,2.32,5.64,3.32,4.97,6.33-4.19,5.35-10.48,13.59-9.95,6.35.41,10.28,13.64,13.34,9.2ZM306.68,183.74c1.24-2.35,1.76-4.73.7-6-.84-1.01-4.85.07-6.36,1.37-17.74,15.78-43.24,14.49-60.22-.94l-5.14-.88c-1.21-.21-1.3,4.1-.96,5.02,20.67,19.53,50.91,20.17,71.98,1.43ZM245.85,148.52c1.08.56,3.12-3.58,2.85-5.01-1.15-6.02-8.06-12.72-14.72-12.91-6.65-.18-13.67,4.72-16.62,10.96-.8,1.7.44,5.59,1.9,6.36,4.78,2.51,5.04-9.78,14.87-9.47,6.19.19,4.95,6.57,11.72,10.07Z"/>
    </g>
    <g>
      <g>
        <path class="cls-1" d="M441.19,296.44h120.68v130.85h-120.68v-130.85ZM494.87,346.87l.03-28.41-36.39-.15-.41,28.37,36.76.19ZM545.29,346.61l-.95-28.31-35.89.19.17,28.46,36.67-.34Z"/>
        <path class="cls-7" d="M412.79,314.92l-125.77-.05-.06,112.37-21.75-.08.07-132.17,84.71-52.04,84.74,51.94.07,132.21-22,.16v-112.35ZM358.73,304.89c1.28.03,4.07-2.84,3.54-3.93-.39-.81-2.66-2.73-3.56-2.73l-17.75-.03c-1.24,0-4.89,3.34-3.87,4.06.77.55,3.43,2.14,4.37,2.16l17.28.47Z"/>
        <polygon class="cls-9" points="552.63 289.76 438.32 289.83 361.65 242.52 474.7 242.19 552.63 289.76"/>
        <rect class="cls-4" x="293.5" y="320.35" width="113.16" height="9.9" transform="translate(-.72 .77) rotate(-.13)"/>
        <rect class="cls-4" x="293.48" y="335.8" width="113.01" height="9.36"/>
        <polygon class="cls-3" points="405.93 427.06 376.89 427.41 376.76 399.66 405.68 399.53 405.93 427.06"/>
        <polygon class="cls-3" points="335.67 427.14 307.11 427.48 306.98 400.38 336.21 399.3 335.67 427.14"/>
        <polygon class="cls-3" points="370.86 427.2 342.29 427.5 342.25 399.72 371.02 400.16 370.86 427.2"/>
        <polygon class="cls-3" points="371.12 393.81 342.27 393.88 342.16 366.16 370.93 366.13 371.12 393.81"/>
        <path class="cls-3" d="M374.27,393.34l-.31-24.51c-.02-1.34,4.28-2.93,6.88-3.22l.78,26.2c-.04,1.21-4.93,2.09-7.35,1.54Z"/>
        <path d="M494.87,346.87l-36.76-.19.41-28.37,36.39.15-.03,28.41ZM488.89,341.04l-.22-16.64-24.56.39-.1,16.23,24.88.02Z"/>
        <path d="M545.29,346.61l-36.67.34-.17-28.46,35.89-.19.95,28.31ZM538.72,341.04l-.17-16.37-24.63.14.1,16.01,24.7.22Z"/>
        <path d="M358.73,304.89l-17.28-.47c-.94-.03-3.6-1.62-4.37-2.16-1.02-.72,2.63-4.06,3.87-4.06l17.75.03c.9,0,3.17,1.92,3.56,2.73.53,1.09-2.26,3.96-3.54,3.93Z"/>
        <polygon class="cls-5" points="488.89 341.04 464.01 341.02 464.1 324.79 488.66 324.4 488.89 341.04"/>
        <polygon class="cls-5" points="538.72 341.04 514.02 340.82 513.92 324.81 538.56 324.67 538.72 341.04"/>
        <path d="M183.25,98.31c-19.18-10.36-39.31-9.62-57.58.38-19.62,10.74-29.71,31.52-31.84,53.83-30.04,1.41-53.52,23.54-54.49,53.02s21.06,54.7,51.63,56.09c-5.27-40.19,21.11-76.26,59.68-82.08,39.4-5.95,76.17,21.19,81.34,61.58,3.71,28.95-9.93,55.68-32.87,69.94-25.55,15.87-57.14,15.04-81.06-4.21l-9.8,10.4c-.96,2.75-.95,10.01-3.05,12.18l-41.25,42.57c-4.9,5.05-10.27,9.17-17.31,8.07-6.75-1.06-12.16-6.31-13.81-13.4s2.05-12.8,7.37-18.25l43.23-44.24,10.85-1.75,9.66-10.26c-5.69-8.16-9.01-15.15-11.76-24.58-32.4-.16-57.44-25.82-58.88-57.37-1.44-31.63,21.23-59.28,54.96-62.9,2.6-19.21,10.64-35.8,26.23-48.32,18.7-15.02,43.69-18.15,65.68-9,19.3-42.32,63.62-65.14,108.65-58.22,43.94,6.76,79.43,41.42,85.08,87.13,26.29,2.97,48.53,18.48,58.99,38.69,13.51,26.1,12.05,53.5-3.41,78.28l48.01.59,90.05,55.11-.13,141.92-126.71-.22-28.7.08-152.58-.23v-141.48s38.76-23.98,38.76-23.98l-54.4-.17-3.28-2.75c-.87-.73,1.6-2.84,2.79-3.44h65.25s40.86-25.04,40.86-25.04l71.93-.17c16.28-20.65,19.43-48.54,7.62-72.93-10.73-22.18-33.42-36.91-60.18-38.52-4.19-45.64-38.39-80.52-80.77-86.94-45-6.81-88,17.45-104.77,60.58ZM226.83,250.26c0-36.05-29.26-65.27-65.34-65.27s-65.34,29.22-65.34,65.27,29.26,65.27,65.34,65.27,65.34-29.22,65.34-65.27ZM412.79,314.92v112.35s22.01-.16,22.01-.16l-.07-132.21-84.74-51.94-84.71,52.04-.07,132.17,21.75.08.06-112.37,125.77.05ZM552.63,289.76l-77.93-47.57-113.05.33,76.66,47.31,114.32-.07ZM102.62,313.99l10.16-10.51-4.77-6.75-11.19,11.25,5.8,6.01ZM441.19,296.44v130.85h120.68v-130.85h-120.68ZM86.16,319.88l1.27-3.94c.2-.61-2.25-1.22-2.7-.76l-2.04,2.06c-13.29,13.43-26.01,26.51-37.81,39.99l3,1.19,38.28-38.54ZM406.65,320.23l-113.16.25.02,9.9,113.16-.25-.02-9.9ZM293.48,335.8v9.36h113.01v-9.36h-113.01ZM371.12,393.81l-.19-27.67-28.78.02.12,27.73,28.85-.07ZM374.27,393.34c2.42.55,7.31-.33,7.35-1.54l-.78-26.2c-2.6.3-6.9,1.88-6.88,3.22l.31,24.51ZM335.67,427.14l.54-27.84-29.22,1.08.13,27.1,28.56-.34ZM370.86,427.2l.16-27.04-28.77-.44.04,27.78,28.57-.3ZM405.93,427.06l-.25-27.53-28.92.13.14,27.75,29.03-.36Z"/>
      </g>
      <g>
        <g>
          <path class="cls-2" d="M226.83,250.26c0,36.05-29.26,65.27-65.34,65.27s-65.34-29.22-65.34-65.27,29.26-65.27,65.34-65.27,65.34,29.22,65.34,65.27ZM215.66,250.39c0-29.88-24.25-54.11-54.17-54.11s-54.17,24.23-54.17,54.11,24.25,54.11,54.17,54.11,54.17-24.23,54.17-54.11Z"/>
          <path class="cls-8" d="M86.16,319.88l-38.28,38.54-3-1.19c11.8-13.48,24.52-26.57,37.81-39.99l2.04-2.06c.45-.45,2.9.15,2.7.76l-1.27,3.94Z"/>
          <polygon class="cls-2" points="102.62 313.99 96.82 307.98 108.01 296.74 112.78 303.48 102.62 313.99"/>
          <ellipse class="cls-8" cx="161.52" cy="250.38" rx="48.1" ry="48.04"/>
          <path d="M215.66,250.39c0,29.88-24.25,54.11-54.17,54.11s-54.17-24.23-54.17-54.11,24.25-54.11,54.17-54.11,54.17,24.23,54.17,54.11ZM209.62,250.38c0-26.53-21.53-48.04-48.1-48.04s-48.1,21.51-48.1,48.04,21.53,48.04,48.1,48.04,48.1-21.51,48.1-48.04Z"/>
        </g>
        <g>
          <path d="M301.02,179.12c1.51-1.3,5.52-2.38,6.37-1.37,1.06,1.27.54,3.65-.7,6-21.07,18.74-51.31,18.1-71.99-1.43-.34-.91-.24-5.22.97-5.02l5.14.88c16.98,15.43,42.47,16.72,60.21.94Z"/>
          <path d="M245.85,148.52c-6.77-3.5-5.53-9.88-11.72-10.07-9.83-.3-10.09,11.99-14.87,9.48-1.46-.77-2.7-4.66-1.9-6.36,2.95-6.24,9.97-11.14,16.62-10.96s13.58,6.88,14.72,12.9c.27,1.43-1.76,5.57-2.85,5.01Z"/>
          <path d="M328,147.71c-3.06,4.44-6.99-8.79-13.34-9.2-8.23-.53-7.26,5.76-13.59,9.95-1,.66-3.57-3.72-3.32-4.97,1.24-6.32,8.75-12.48,15.23-12.89,7.15-.45,15.32,6.38,16.16,12.77.13,1-.69,3.68-1.14,4.33Z"/>
        </g>
      </g>
    </g>
  </g>
  <path class="cls-6" d="M212.11,262.3c-4.84,6.52-12.9,4.5-50.62,3.71-37.86-.79-45.11.92-49.73-5.48-7.98-11.03,1.09-33.33,14.13-45.46,13.34-12.41,29.76-13.16,35.61-13.07,2.15.03,26.43.78,41.66,20.85,7.41,9.76,16.56,29.21,8.96,39.45Z"/>
  <path d="M215.65,250.39c0,29.88-24.25,54.11-54.17,54.11s-54.17-24.23-54.17-54.11,24.25-54.11,54.17-54.11,54.17,24.23,54.17,54.11ZM209.61,250.38c0-26.53-21.53-48.04-48.1-48.04s-48.1,21.51-48.1,48.04,21.53,48.04,48.1,48.04,48.1-21.51,48.1-48.04Z"/>
</svg>